<?xml version="1.0" encoding="UTF-8" standalone="no"?>
<!-- Created with Inkscape (http://www.inkscape.org/) -->

<svg
   xmlns:dc="http://purl.org/dc/elements/1.1/"
   xmlns:cc="http://creativecommons.org/ns#"
   xmlns:rdf="http://www.w3.org/1999/02/22-rdf-syntax-ns#"
   xmlns:svg="http://www.w3.org/2000/svg"
   xmlns="http://www.w3.org/2000/svg"
   xmlns:sodipodi="http://sodipodi.sourceforge.net/DTD/sodipodi-0.dtd"
   xmlns:inkscape="http://www.inkscape.org/namespaces/inkscape"
   version="1.1"
   id="svg2"
   xml:space="preserve"
   width="226.18799"
   height="391.21945"
   viewBox="0 0 226.188 391.21945"
   sodipodi:docname="mini_logo_idea.svg"
   inkscape:version="0.92.4 (f8dce91, 2019-08-02)"><metadata
     id="metadata8"><rdf:RDF><cc:Work
         rdf:about=""><dc:format>image/svg+xml</dc:format><dc:type
           rdf:resource="http://purl.org/dc/dcmitype/StillImage" /><dc:title></dc:title></cc:Work></rdf:RDF></metadata><defs
     id="defs6"><clipPath
       clipPathUnits="userSpaceOnUse"
       id="clipPath20"><path
         d="M 0,0 H 1024 V 768 H 0 Z"
         id="path18"
         inkscape:connector-curvature="0" /></clipPath></defs><sodipodi:namedview
     pagecolor="#ffffff"
     bordercolor="#666666"
     borderopacity="1"
     objecttolerance="10"
     gridtolerance="10"
     guidetolerance="10"
     inkscape:pageopacity="0"
     inkscape:pageshadow="2"
     inkscape:window-width="1855"
     inkscape:window-height="890"
     id="namedview4"
     showgrid="false"
     inkscape:zoom="0.66113283"
     inkscape:cx="76.824398"
     inkscape:cy="189.00706"
     inkscape:window-x="0"
     inkscape:window-y="27"
     inkscape:window-maximized="0"
     inkscape:current-layer="g16"
     fit-margin-top="0"
     fit-margin-left="0"
     fit-margin-right="0"
     fit-margin-bottom="0" /><g
     id="g10"
     inkscape:groupmode="layer"
     inkscape:label="logo_idea"
     transform="matrix(1.3333333,0,0,-1.3333333,-605.84225,714.21238)"><g
       id="g12" /><g
       id="g14"><g
         id="g16"
         clip-path="url(#clipPath20)"><path
           d="m 539.2022,535.1593 c -46.5685,0 -84.3205,-38.492 -84.3205,-85.9882 0,-8.8251 1.3018,-17.3427 3.7237,-25.3578 8e-4,-0.004 -7e-4,-0.0192 0,-0.0229 0.1104,-0.4715 0.388,-1.2921 0.7996,-2.4215 0.886,-2.6464 1.8912,-5.2452 3.0155,-7.7673 9.8171,-24.4751 34.9298,-83.6708 34.9299,-96.9537 l 1.6905,-10.303 c 0,0 0.3149,-1.0675 1.2565,-2.3988 h 78.061 c 0.9415,1.3313 1.2565,2.3988 1.2564,2.3988 l 1.6906,10.303 c 0,16.1486 37.0918,100.1655 38.7221,107.1425 0.0511,0.2172 0.0241,0.3931 -0.0914,0.5255 2.3232,7.8659 3.5866,16.2166 3.5866,24.8552 0,47.4962 -37.7513,85.9882 -84.3205,85.9882 z M 501.2797,295.5849 c -0.1016,-0.4145 -0.1827,-0.8341 -0.1828,-1.2793 v -8.2242 c 0,-2.7114 2.0159,-4.9511 4.6147,-5.3685 -0.6206,-0.8078 -1.0052,-1.8106 -1.0052,-2.9013 v -7.1962 c 0,-2.6324 2.1421,-4.7745 4.7746,-4.7745 h 1.5078 v -6.5794 c 0,-2.5454 2.0913,-4.6146 4.6375,-4.6146 h 8.0871 c 0.8509,-6.6898 7.4577,-11.9022 15.4888,-11.9022 8.0312,0 14.6379,5.2131 15.4889,11.9022 h 8.0871 c 2.5454,0 4.6374,2.0692 4.6375,4.6146 v 6.5794 h 1.5077 c 2.6325,0 4.7746,2.1413 4.7746,4.7745 v 7.1962 c 0,1.0907 -0.3845,2.0935 -1.0052,2.9013 2.5989,0.4174 4.6147,2.6571 4.6147,5.3685 v 8.2242 c 0,0.4452 -0.0805,0.8641 -0.1828,1.2793 z"
           style="fill:#f3fe00;fill-opacity:1;fill-rule:nonzero;stroke:none"
           id="path24"
           inkscape:connector-curvature="0" /><g
           id="g26"
           transform="matrix(1,0,0,-1,454.8817,535.1593)"><path
             d="M 84.3205,0 C 37.75201,0 0,38.492 0,85.98817 c 0,8.82508 1.30178,17.34273 3.723717,25.35783 7.37e-4,0.004 -7.36e-4,0.0192 0,0.0228 0.110388,0.4716 0.387984,1.2921 0.799572,2.4216 0.88602,2.6464 1.891151,5.2452 3.015525,7.7673 9.817076,24.4751 34.929796,83.6708 34.929836,96.9537 l 1.69053,10.303 c 0,0 0.31489,1.0675 1.25647,2.3988 h 78.06095 c 0.9416,-1.3313 1.2565,-2.3988 1.2565,-2.3988 l 1.6905,-10.303 c 0,-16.1486 37.0918,-100.1655 38.7221,-107.1426 0.0512,-0.2171 0.0242,-0.393 -0.0914,-0.5254 2.3233,-7.8659 3.5867,-16.21657 3.5867,-24.85523 C 168.641,38.492 130.8897,5.577366e-6 84.3205,0 Z M 46.39798,239.5744 c -0.10162,0.4145 -0.1827,0.834 -0.18276,1.2793 v 8.2242 c 0,2.7114 2.01586,4.9511 4.61466,5.3685 -0.62064,0.8078 -1.00517,1.8106 -1.00517,2.9013 v 7.1961 c 0,2.6325 2.14209,4.7746 4.77458,4.7746 h 1.50776 v 6.5794 c 0,2.5454 2.09136,4.6146 4.63752,4.6146 h 8.08709 c 0.85093,6.6897 7.45767,11.9022 15.48884,11.9022 8.03116,0 14.63791,-5.2131 15.48883,-11.9022 h 8.08707 c 2.5455,0 4.6375,-2.0692 4.6375,-4.6146 v -6.5794 h 1.5078 c 2.6325,0 4.7745,-2.1413 4.7746,-4.7746 v -7.1961 c 0,-1.0907 -0.3845,-2.0935 -1.0052,-2.9013 2.5988,-0.4174 4.6146,-2.6571 4.6147,-5.3685 v -8.2242 c 0,-0.4452 -0.0805,-0.8641 -0.1828,-1.2793 z"
             style="fill:none;stroke:#000000;stroke-width:1;stroke-linecap:butt;stroke-linejoin:miter;stroke-miterlimit:4;stroke-dasharray:none;stroke-opacity:1"
             id="path28"
             inkscape:connector-curvature="0" /></g><path
           d="m 539.2022,535.4025 c -45.8893,0 -83.223,-37.3337 -83.223,-83.223 0,-45.8893 37.3337,-83.223 83.223,-83.223 45.8894,0 83.223,37.3337 83.223,83.223 0,10.7243 -2.1133,20.943 -5.824,30.3655 -12.1673,30.8963 -42.234,52.8575 -77.399,52.8575 z m 0,-0.4151 c 4.3187,0 8.5326,-0.4294 12.6729,-1.0766 l 0.441,-0.1037 0.3891,-0.0519 1.0377,-0.1816 0.6615,-0.1038 0.6097,-0.0778 -0.026,0.0389 -0.8301,0.1557 c 0.1238,-0.0228 0.2526,-0.0287 0.3761,-0.0519 l 0.0519,-0.013 0.4021,-0.0908 1.2972,-0.2854 -0.1816,0.0908 c 0.7391,-0.1539 1.4473,-0.3842 2.1791,-0.5577 h 0.013 l 0.5059,-0.1946 -0.3892,0.0778 -0.1686,-0.0259 0.3243,-0.1038 -0.1686,-0.0389 0.2334,-0.1297 -0.882,0.2335 -0.441,0.0648 -0.3632,-0.0129 -0.013,-0.1946 1.0507,-0.2724 0.6485,0.013 0.3762,-0.0649 0.2205,-0.0778 0.7913,-0.2075 -0.2335,-0.0519 h -0.1038 l -0.0908,0.0129 0.013,-0.0129 -0.3502,0.0129 -0.1298,-0.0778 1.2712,-0.454 0.0778,-0.0259 0.6616,0.1427 0.7912,-0.1946 1.0118,-0.4151 0.1556,0.0649 0.4929,-0.1297 -0.0389,0.1426 0.6356,-0.1297 -0.3243,0.2076 1.5047,-0.48 -0.3113,0.1816 -0.8821,0.3632 -0.6226,0.1946 -0.8042,0.2724 -0.5318,0.2205 h 0.1556 l -0.0389,0.0389 c 0.1325,-0.0386 0.2699,-0.0645 0.4021,-0.1038 l 0.6226,-0.1815 0.013,0.0259 c 15.5501,-4.7554 29.1525,-13.9809 39.3416,-26.1629 l -0.8042,0.7653 -0.467,0.3892 0.4021,-0.5708 0.7523,-0.7393 0.3243,-0.441 0.4929,-0.5189 -0.4151,0.3113 -0.5707,0.5189 -0.5448,0.3243 0.1427,-0.2984 -0.0389,-0.1167 0.1297,-0.1946 0.5448,-0.5967 0.1297,-0.2075 0.1686,-0.1297 0.441,-0.5059 0.0779,-0.1816 0.0259,-0.1038 0.1427,-0.2075 -0.1427,0.0908 -0.1946,0.2075 0.0519,-0.2075 0.5448,-0.9858 0.3373,-0.1946 0.7393,-1.2193 0.6616,-0.882 0.4021,-0.6486 -0.3243,0.1038 -0.5707,0.4929 -0.4411,0.2335 -0.5707,0.6486 -0.9339,1.336 -0.467,0.7523 -0.7393,1.336 -0.2206,0.4929 -0.0259,0.1816 -0.1297,0.1298 -0.4021,0.4799 -0.3632,0.2983 -0.3373,0.1816 -0.3891,0.3243 -0.2075,0.1946 -0.3632,0.2464 -0.6356,0.7783 -0.4151,0.3632 -0.454,0.3632 -0.0648,-0.0649 -0.3632,0.3632 -1.1285,0.7783 0.2205,-0.5189 -0.2465,0.013 -1.0506,0.6226 -0.8042,0.6097 -1.6214,1.1933 -1.6733,1.1804 -0.7913,0.6875 -2.0494,1.4009 -1.7511,1.5176 -1.2193,1.1025 -1.336,0.895 -0.8432,0.7394 -0.5707,0.9469 0.3502,0.0519 0.7653,-0.4151 0.1168,0.1816 -0.5059,0.5318 0.3762,0.1038 -3.8525,1.9197 -3.2817,1.4917 -1.5695,0.2205 -1.1025,-0.1297 -1.0377,0.3632 -0.5448,-0.1038 0.7393,-0.5448 -0.8301,0.0779 -1.3361,0.1945 -0.1686,0.454 -2.7628,1.1934 -1.5695,0.2334 0.6485,-0.856 -2.257,0.7652 -0.9858,0.5578 -0.7004,0.0649 1.5565,-0.9729 1.6344,-0.5577 1.79,-0.7524 2.0494,-0.9469 1.0377,-0.1686 0.4411,-0.3632 0.9858,-0.4799 1.4917,-1.1155 1.6084,-1.8808 0.9598,-1.2972 0.3243,-0.6226 -1.6603,0.8431 -1.0117,0.8951 -1.1285,0.2205 -1.1285,0.9728 -1.5047,0.4281 -0.0778,0.3631 -0.921,0.6745 -0.5966,0.039 -1.2193,1.1544 0.4929,0.1686 -0.2984,0.3113 -1.4657,0.7264 -0.7134,0.4799 -0.6486,-0.0908 -0.882,0.3114 0.013,-0.2724 -2.1014,0.5707 -0.3891,-0.5059 -0.5318,0.3243 -1.2842,0.441 -1.3749,0.4929 -0.6097,0.0778 -2.1272,0.5059 -1.0247,-0.1427 -0.2854,0.1816 -0.1427,0.2724 0.1297,0.1816 -0.0908,0.5318 0.2205,0.3243 -0.7004,-0.0389 -0.9599,0.2724 -1.0377,1.1285 -0.2464,0.0778 -0.2854,0.3113 0.1557,0.013 -0.3503,0.3762 -1.3619,0.1556 0.6615,-0.3372 0.0389,-0.3373 0.7264,-0.3372 0.013,-0.3892 -0.6745,0.1946 -0.5319,0.0389 -0.9079,-0.5837 0.6745,-0.441 -0.4021,-0.1557 -1.6603,0.3892 -0.2854,-0.2205 0.5188,-0.2854 0.0779,-0.2983 -0.5708,0.1556 -0.869,0.1946 -0.48,0.908 -1.1285,0.428 0.3892,0.0778 2.7628,-0.441 0.8172,0.1557 0.4021,0.2983 -0.3113,0.3762 -0.5967,0.2594 -2.3477,0.6096 -1.4528,0.1168 -0.9599,0.3113 -0.441,-0.1816 -0.6615,0.3113 0.5837,0.1297 -1.6085,0.3502 -0.8171,-0.0908 -0.8691,0.026 -0.7134,-0.4021 -0.8042,0.0259 -1.1156,-0.2205 -1.5695,-0.6485 -1.0377,-0.4022 -1.777,-1.1025 -1.4528,-0.8431 -1.5435,-0.6616 -1.9717,-0.5577 -0.8301,-0.4281 -0.6875,-1.6343 -0.1556,-0.8042 0.8301,-0.3892 1.0636,0.1816 1.7771,0.8691 0.3243,-0.454 0.2205,-1.0896 0.4021,-0.895 0.0519,-0.7653 0.9469,0.0389 0.6096,0.6486 0.9469,-0.0779 0.5967,0.7394 0.5188,1.2971 0.8042,0.1816 0.7913,0.8172 -0.6356,0.4021 -0.4021,0.4929 0.6615,0.9599 1.349,0.5707 1.0507,0.5059 -0.0778,0.3761 0.6096,0.4281 1.0247,0.1686 0.8432,-0.2853 0.0908,-0.2595 -0.4022,-0.1297 -1.4268,-0.6745 -0.5967,-0.4021 -0.3372,-0.3891 0.2983,-0.6097 -0.1945,-0.6874 0.6874,-0.2335 0.4151,-0.4021 1.1804,0.1556 1.2452,0.2595 1.2842,0.0648 0.8171,-0.3502 -0.7652,-0.4021 -0.7524,-0.013 -0.8172,0.1167 -0.9209,-0.1037 -0.9339,-0.2076 0.0778,-0.428 0.4799,-0.2724 0.2854,0.0908 -0.0778,-0.454 -0.1298,-0.5967 -0.6355,-0.0129 -0.6097,0.5837 -0.7523,-0.2595 -0.4021,-0.5058 -0.0649,-0.5967 0.1427,-0.6875 -1.1544,-0.2724 -0.2205,-0.3632 h -0.8172 l -0.0389,0.2076 -0.8172,0.1427 -1.0896,-0.2854 -1.3879,-0.3891 -0.6356,-0.2465 -0.3372,0.2724 -0.8561,0.3243 -0.5319,-0.2205 -0.895,-0.1687 0.1038,0.2984 -0.7783,0.2075 0.0908,0.3243 -0.0908,0.4021 0.7653,0.5837 0.2076,-0.0908 0.2983,0.2983 -0.3891,0.1298 -0.026,0.2205 0.3243,0.2594 0.1557,0.4021 -0.6875,-0.2205 -0.3502,-0.2205 -0.6875,-0.0519 -0.3113,-0.2335 -0.2076,-0.2205 -0.2983,-0.8172 0.1557,-0.4669 -0.1297,-0.467 0.0778,-0.3243 -0.7005,-0.4151 -0.0908,0.1816 -0.7134,-0.0389 -0.2205,-0.1816 -0.6875,0.013 -1.2711,-0.3502 -1.2842,-1.3101 -0.5448,-0.2465 -0.7523,-0.1816 -0.8302,-0.1816 -0.5966,-0.7523 -2.3478,-0.7264 -0.6097,0.4021 -0.2464,-1.0766 -1.336,0.2465 -1.2064,-0.2076 -0.2853,-0.7004 1.1544,-0.3762 0.4151,-0.4929 0.4799,-1.0506 -1.0247,-2.0365 -0.7394,-0.6226 -1.5176,0.0389 -0.8042,-0.0649 -0.908,0.1816 h -1.2452 l -1.0118,0.1816 -1.6473,-0.7523 0.1427,-0.467 -0.4151,-0.7653 -0.1297,-0.3632 v -0.3891 l -0.1946,-0.454 -0.4929,-0.6615 -0.2594,-0.454 -0.5578,-0.4021 -0.4021,-0.7394 0.0519,-0.428 0.3892,-0.1038 -0.1946,-0.7004 -0.5189,-0.895 0.5578,0.1297 0.467,-0.1687 0.5188,0.2984 0.8691,-0.1816 0.0389,-0.6615 0.2464,-0.3892 0.467,-0.1038 0.5448,0.4411 0.7912,0.415 0.9729,-0.0259 1.336,0.013 1.0377,0.895 0.8561,0.2205 0.454,0.7523 0.7653,0.4929 -0.1946,0.6486 0.6875,0.908 0.8301,0.6096 0.2076,0.3632 1.3749,0.2335 1.1934,0.7134 0.1297,0.6226 0.3243,0.6486 1.5565,0.3372 1.9068,-0.2853 1.0766,0.5966 0.441,0.0779 0.7004,0.4799 0.4929,0.1427 0.7524,-0.3502 0.4799,-0.1168 0.1038,-1.0377 0.5837,-0.6096 0.8431,-0.7005 0.7653,-0.4929 0.7783,-0.0648 0.415,-0.441 0.6745,-0.2076 0.2595,-0.4669 0.441,-0.1427 0.2724,-0.5578 0.3762,-0.6485 -0.2724,-0.2335 -0.2854,-0.6097 -0.0389,-0.3502 0.4799,0.0908 0.6875,0.9728 0.4799,0.0649 0.1816,0.5837 -0.7653,0.4151 0.5318,0.7134 0.934,-0.1816 0.5837,-0.5189 0.2334,0.3892 -0.1037,0.2075 -0.895,0.5708 -0.7783,0.3372 -0.921,0.3891 0.3243,0.2205 -0.2335,0.2335 h -0.8431 l -1.0636,0.8561 -0.4021,0.8691 -0.8691,0.5318 -0.2465,0.5189 0.1816,0.2983 0.039,0.5059 0.882,0.3632 0.7653,-0.1557 -0.2335,-0.0908 -0.0389,-0.013 -0.0908,-0.3502 0.2465,-0.3502 0.3891,0.441 0.6226,-0.1556 -0.0259,-0.3503 0.4021,-0.428 -0.2205,-0.0778 0.7782,-0.7653 0.934,-0.3113 0.5707,-0.3892 0.9728,-0.3891 0.441,-0.2076 0.2854,-0.3502 0.2205,-0.0908 0.1686,-0.1686 -0.1686,-0.3372 -0.1297,-0.7394 0.0649,-0.5318 0.5966,-0.3632 0.013,-0.2465 0.1816,-0.0778 0.0649,-0.3243 0.5577,-0.6356 0.4281,-0.5188 0.1816,-0.7523 0.415,-0.921 0.9469,-0.5059 0.7783,0.013 -0.441,1.0247 0.7264,0.1168 -0.3373,0.5837 1.0637,-0.3113 -0.026,0.6485 -0.5707,0.3243 -0.6226,0.5318 0.415,0.2335 -0.5577,0.5318 -0.2465,0.6616 0.2076,0.2334 0.5837,-0.5707 h 0.6226 l 0.5578,0.1816 -0.7783,0.6226 1.323,0.2854 0.5837,-0.1038 0.6616,-0.0389 v -0.2205 l 0.3761,-0.5059 0.8821,0.5837 0.441,0.3373 1.2971,0.0648 0.1686,0.2724 -0.9728,0.3373 -0.1557,0.415 -0.4021,0.6097 0.3373,0.7653 0.5059,0.428 0.1556,1.2582 0.3243,-0.1037 0.467,0.2205 -0.0519,0.2724 0.6874,0.7393 0.2984,0.5578 0.895,0.1167 0.1297,-0.3761 1.5825,-0.2465 0.3243,-0.2335 -0.895,-0.3372 -0.1427,-0.1946 1.1544,-0.2983 -0.1427,-0.48 0.6097,-0.2075 1.2582,0.5967 1.0506,0.1686 0.1168,0.3632 -0.9988,-0.0519 -0.5448,0.2465 -0.1946,0.6226 0.7653,0.3632 0.8951,0.0519 0.5577,0.3242 0.7394,0.0779 0.8042,0.1556 0.0908,-0.2075 -1.2971,-0.4021 0.6485,-0.4021 -0.5967,-0.8432 -0.6745,-0.1556 1.0118,-0.6097 1.2323,-0.3891 1.5176,-0.882 0.4669,-0.3243 0.5967,-0.1168 0.6875,-0.3891 0.467,-0.7264 -0.013,-0.4669 -1.0766,-0.5708 -0.921,0.1038 -1.1933,-0.1686 -1.6084,0.4151 -1.9976,0.7653 -1.7381,-0.026 -1.1934,-0.2983 -1.2063,-0.7005 -2.0754,0.1427 -0.3891,-0.8301 -1.6863,-0.0519 -1.1804,-1.0507 0.7394,-0.5448 -0.5059,-0.869 0.8691,-0.6356 0.7523,-1.1415 1.2582,0.013 1.1674,-0.6226 0.7913,0.1426 0.2205,0.48 1.2582,-0.0389 0.9988,-0.6227 1.7381,0.1298 0.6875,0.6745 0.9858,-0.2724 0.6745,0.1037 -0.3502,-0.441 0.5058,-0.5318 -0.2075,-0.4799 0.2594,-0.908 -0.0259,-0.0389 -0.454,-0.8432 -0.2854,-0.9728 -0.0259,-0.013 -0.1297,-0.3113 -0.1168,-0.9209 -0.2464,-0.5708 0.0908,-0.0648 -0.3113,-0.4151 -0.5578,-0.3113 -0.9599,0.0778 -1.0117,0.2854 -0.2465,-0.4021 -0.3891,0.6096 -0.895,0.1557 -1.0637,-0.1038 -0.4799,-0.3502 -0.9339,-0.3891 -0.5837,0.1945 -1.2452,0.3632 -1.2064,0.3243 -1.6343,-0.013 -0.3113,0.4021 -1.2193,0.1427 -0.4021,0.2076 h -0.454 l -0.4151,0.5447 -1.6473,0.2595 -0.8432,-0.1687 -0.895,-0.5707 -0.4151,-0.5967 0.2595,-0.9469 -0.6097,-0.5707 -0.6226,-0.3243 -1.2971,0.6226 -1.7122,0.5189 -1.0896,0.2335 -0.4799,1.0896 -1.5566,0.5447 -0.9858,0.2076 -0.5188,-0.1038 -1.349,0.4151 -0.4281,0.1946 -0.2205,0.5707 -0.6096,0.013 -0.1168,0.6615 0.8561,0.5967 0.2984,1.0117 -0.3502,0.2983 0.0908,0.5319 0.6615,0.5707 -0.0519,0.2205 -1.0247,-0.428 0.1297,0.5837 -0.7653,0.1426 -1.3101,-0.4669 -0.7783,-0.0649 -0.4021,0.2724 -1.1804,-0.0129 -1.1544,-0.454 -0.5188,0.1686 -1.829,-0.0908 -1.9067,-0.2076 -1.1415,-0.3502 -0.8172,-0.4929 -1.2193,-0.1945 -1.2322,-0.6486 -0.454,0.013 -1.0247,0.2594 -1.0248,-0.0778 -0.4669,0.4929 -0.7524,0.0129 -0.5837,-0.7263 -1.1025,-1.2323 -0.9469,-0.4929 -1.2193,-0.5448 -0.9469,-0.8172 -0.3632,-0.6485 -0.7393,-1.0637 -0.2335,-1.5435 -1.2063,-1.0507 -0.6356,-0.3373 -1.0896,-0.8561 -1.0247,-0.1426 -0.6875,-0.5059 -1.0636,-1.3101 -0.8302,-0.4799 -0.6096,-0.8043 -0.2335,-0.6874 -0.4799,-0.7653 -0.4151,-0.2076 -0.8042,-0.8431 -0.6097,-0.9339 -0.0519,-0.441 -0.5318,-0.7005 -0.4799,-0.3632 -0.2076,-0.6226 -0.1945,-0.5707 0.4151,-0.5837 0.1167,-0.6356 -0.2594,-0.6745 -0.026,-0.6745 -0.1686,-1.349 -0.3891,-1.2971 -0.4281,-0.6875 -0.0519,-0.7394 -0.3891,-0.7134 -0.6875,-0.9728 -0.5058,-0.2594 0.441,-0.5059 0.2724,-1.0896 -0.2335,-0.6096 0.0259,-1.0896 0.026,-0.2983 0.2983,-0.2984 -0.0389,-0.2075 0.1946,-0.4021 0.454,-0.0908 0.5318,-0.5967 0.2983,-0.2335 0.1297,-0.3113 0.0519,-0.6226 0.2465,-0.2854 0.2724,-0.1816 0.3891,-0.5577 0.428,-0.8302 0.0519,-1.0636 0.1557,-0.5189 0.5448,-0.7653 0.8042,-0.5707 0.3243,-0.1038 0.7393,-0.9209 0.9858,-0.7913 1.0507,-1.0895 1.2322,-0.6875 0.3373,0.013 0.2335,-0.0389 1.2582,0.5318 0.895,0.415 1.5176,0.2465 0.8172,0.013 0.895,-0.2724 0.5837,0.0129 1.1545,-0.4021 1.1933,0.4151 0.7523,0.4929 2.1143,0.8302 1.1026,0.3113 1.1155,0.1686 h 1.1933 l 1.0248,0.013 0.9339,-0.9469 0.428,-1.0377 0.7135,-0.895 1.1155,-0.026 0.5318,0.3113 0.5318,-0.0648 1.4528,0.5059 -0.013,-0.3892 0.3502,-0.2075 0.2724,-0.6486 0.6356,-0.2334 0.5318,-0.9599 -0.2075,-1.1285 -0.5059,-1.6214 0.2724,-0.2205 -0.2854,-1.0636 -0.3502,-1.0507 -0.2983,-0.454 -0.0519,-0.4799 0.8691,-1.4917 0.9469,-1.1804 1.4657,-1.4528 1.1934,-1.5176 0.3891,-1.0766 0.2075,-0.441 -0.1297,-0.2854 0.7264,-0.908 0.3113,-0.9469 0.467,-1.3749 -0.4151,-0.5707 -0.0649,-0.2984 0.3632,-0.8431 0.4021,-0.8691 0.4411,-0.5058 0.0908,-0.7913 -0.1038,-1.0507 -0.4281,-0.6226 -0.7653,-0.9209 -0.3113,-0.5708 -0.3891,-1.2711 -0.0389,-0.5967 -0.4021,-1.2712 -0.1297,-1.2063 0.1816,-0.8691 0.1556,-1.0506 1.1804,-1.3361 0.3502,-0.8561 0.8042,-1.6214 0.7524,-1.1155 0.5577,-0.5448 0.2076,-0.7263 0.1426,-1.5825 0.5708,-2.0235 0.3761,-0.9469 0.3762,-1.2453 0.5578,-0.9339 1.0117,-0.9728 0.9988,-1.6344 0.6875,-1.0507 0.869,-1.1544 0.0908,-0.9469 -0.3891,-0.2205 0.441,-0.8042 0.0389,-0.7134 0.1686,-0.3243 0.0519,0.1686 0.5448,-0.5318 0.4021,-0.0259 0.5189,-0.4151 0.5448,0.0259 0.7264,0.454 1.0117,0.1816 1.2323,0.467 0.5058,-0.0519 0.7264,0.1427 1.2971,-0.2335 0.6097,0.2335 0.7264,-0.1816 0.1556,0.3372 0.6226,0.0649 1.2842,0.467 0.9469,0.5447 0.908,0.7264 1.4657,1.2712 0.7783,0.895 0.3891,0.6356 0.5837,0.6356 0.2594,0.1816 0.908,0.6356 0.3762,0.5837 0.2464,1.0506 0.4021,0.934 0.1557,0.6874 -0.3113,0.0779 -0.0649,0.5447 0.5967,0.493 1.6214,0.7004 1.1026,0.441 0.5837,0.467 0.2464,0.5577 -0.2854,0.2205 0.2724,0.6097 0.1557,1.3101 -0.2465,-0.0649 0.026,0.4021 -0.1946,0.7783 -0.5577,1.0247 0.1945,0.9599 0.5708,0.3243 1.0117,0.9598 0.5318,0.2465 1.6214,1.4787 1.5566,0.6615 1.2711,0.5318 0.921,0.8561 0.5967,0.9599 0.4799,0.9858 -0.1816,0.6875 0.1038,2.1921 -0.0908,1.2323 0.1426,1.4138 -0.1815,0.6356 -0.493,0.2984 -0.4929,1.4009 -0.441,0.895 0.1168,0.6874 -0.0649,0.4281 0.4151,0.8691 -0.026,0.3631 -0.869,0.5189 -0.0649,0.8172 0.6875,1.7641 0.5707,0.4799 0.2854,0.9469 0.454,0.5837 0.2205,1.0117 0.5188,0.1038 0.3373,0.6096 0.9728,0.5708 0.3113,0.3372 0.3243,0.7653 1.5047,1.7382 1.2582,1.0895 1.9975,1.4398 1.3101,1.1545 1.5047,1.9716 1.0506,1.5955 1.0248,2.1013 0.6745,1.8289 0.5058,1.5825 0.2335,1.5436 0.2205,0.5058 -0.0648,0.7394 0.0389,0.8302 -0.0778,0.3891 -0.467,-0.013 -0.5448,-0.4799 -0.6615,-0.1427 -0.5708,-0.2075 -0.4021,-0.026 -0.7263,-0.0519 -0.4411,-0.2594 -0.6226,-0.0908 -1.1155,-0.441 -1.4139,-0.1686 -1.2192,-0.3632 -0.6616,0.0129 -0.6356,0.5838 -0.2983,0.5837 -0.454,0.2594 -0.5967,0.3891 0.7264,0.3373 v 0.5837 l -0.3502,0.441 -0.6745,0.4151 -0.454,0.4799 -0.7912,0.8172 -0.8042,0.7912 -1.9328,1.3101 -0.7782,0.6875 -0.48,1.2582 -0.9079,1.5954 -0.7653,0.5059 -0.5319,0.3373 -0.6355,1.6214 -0.3114,1.4008 0.2595,0.2335 -0.5448,1.3231 -0.2594,0.2724 -1.6214,1.1933 -0.1297,0.8561 0.2334,0.2335 -1.2971,1.4528 -0.4799,0.7393 -0.5448,0.7005 -1.1415,2.0105 -0.895,1.2712 -0.6356,1.336 0.1168,0.1038 1.0636,-1.803 0.6097,-0.5707 0.4669,-0.4021 0.2724,0.2205 0.2724,0.6615 0.1557,0.9599 0.2983,0.5058 0.0649,-0.1816 -0.1038,-0.5058 v -0.4411 l -0.1168,-0.7004 h 0.6227 l 0.7393,-0.8691 0.8821,-1.0377 0.6096,-0.9598 0.4021,-0.2984 0.4281,-0.6745 -0.039,-0.2983 0.5059,-0.7523 0.7264,-0.2724 0.6615,-0.5059 0.908,-1.4787 0.026,-0.7913 0.2594,-0.9209 0.9988,-1.2842 0.5966,-0.2205 0.9988,-0.9339 0.4929,-1.1155 0.8172,-1.1415 0.7264,-0.4929 0.1556,-0.5577 0.4411,-0.4151 0.2205,-0.5837 0.1167,-0.6097 -0.1297,-0.2594 0.1946,-0.6356 -0.2595,-0.0648 0.4281,-0.5708 0.3502,-1.0377 0.2594,-0.415 0.013,-0.7653 0.4151,-0.8172 0.9209,-0.0778 0.4021,0.1945 0.6616,-0.0259 0.1686,0.3502 0.3373,0.1038 0.2464,0.3761 0.3243,0.0779 1.0766,0.0648 0.7912,0.2724 0.6875,0.5837 0.4021,-0.0778 0.5448,0.0778 1.0117,0.9858 1.9198,0.6486 1.1414,0.5837 -0.0389,0.467 0.1427,0.6226 0.8172,0.3632 0.5448,0.0778 0.7264,0.4669 0.6745,-0.1297 0.5058,0.3892 -0.1037,0.5448 0.4021,0.3502 0.7134,-0.013 0.2205,0.2983 -0.013,0.6616 0.6097,0.5059 h 0.5318 l 0.0649,0.1686 -0.3243,0.908 0.0389,0.6874 0.1686,0.3243 0.5189,-0.0778 0.2075,0.9209 0.3632,0.4281 0.0778,0.3762 0.2076,0.8042 -0.0779,0.2983 -0.428,0.1686 -0.4021,0.441 -0.6745,0.7524 -0.7005,0.2464 -0.8431,0.1687 -0.7264,0.4799 -0.7264,0.895 -0.415,1.0247 0.0778,0.2465 -0.0389,0.5318 -0.1687,0.1167 -0.1945,-0.441 -0.48,-0.8042 -0.6226,-0.8431 -0.5707,-0.8821 -0.6875,0.0389 -0.9598,0.039 -0.8561,-0.2076 -0.1168,0.3502 -0.1945,-0.0648 -0.3373,0.5059 0.0778,0.7653 -0.1945,0.7653 -0.4411,0.4021 -0.2723,-0.1297 -0.1557,-0.6875 0.2854,-0.9469 -0.2465,0.3243 -0.2464,0.428 -0.4151,0.3632 -0.2465,0.4281 0.013,0.441 -0.1816,0.5318 -0.9209,0.5318 -0.2984,0.454 -0.6356,0.2983 -0.7004,1.0896 -0.5967,0.9599 0.0389,0.2853 -0.3761,0.5448 0.6874,-0.0518 0.2984,0.4799 0.8301,-0.4151 0.5448,0.2075 1.2582,-1.6732 1.0637,-1.2064 1.1674,-0.3631 1.3879,-0.9859 1.4657,-0.428 0.9339,0.6226 0.7783,0.2335 0.5707,-0.2335 0.8951,-1.5825 1.2582,-0.1686 1.2452,-0.2983 2.0624,-0.3892 1.3749,0.1816 1.6085,0.026 1.7122,0.2335 1.0506,-0.9859 0.5837,-0.9469 0.7913,-0.3372 1.4398,-1.1155 0.428,-0.5318 -0.2983,-0.48 1.6733,-1.6214 0.6745,-0.1686 1.0636,0.8042 0.5448,-1.2582 0.441,-1.6344 0.7134,-1.7511 0.9988,-2.672 1.2063,-1.9068 0.3243,-0.8691 0.5448,-1.764 0.6875,-1.349 0.415,-0.6616 0.5448,-1.4268 0.6616,-1.9976 0.9598,-1.323 0.2854,0.4151 0.1556,0.9598 0.6875,0.4021 -0.3113,0.467 0.2076,1.0896 0.3891,0.0648 -0.3891,2.3997 0.0778,1.336 -0.2724,1.1674 -0.5578,1.803 -0.0129,1.0637 0.3242,0.0778 0.5448,0.4929 0.2724,0.3372 -0.1686,0.6356 0.454,0.908 0.2594,0.8561 0.2594,1.6084 0.5967,0.908 0.0519,0.8042 -0.3762,1.0118 0.6097,0.2724 0.3891,-0.013 -0.1038,0.4929 0.2595,-0.1297 0.1945,-0.1427 -0.0129,0.2465 0.3242,-0.2724 -0.1167,0.7393 -0.2465,0.5578 0.48,-0.0649 0.4929,-0.7653 0.3372,-0.6485 0.2854,-0.6875 0.3891,-0.7004 0.7134,-1.1026 0.3243,-0.1686 0.1038,-0.4929 0.8691,-1.5695 0.4799,-1.2842 0.3243,-1.7122 0.3632,-0.3242 0.2724,-0.1298 0.1945,0.9859 0.0519,0.7004 0.4929,-1.1415 0.5318,-1.764 0.5319,-1.6733 0.3113,-0.7134 0.2983,-1.5436 0.2854,-0.8302 0.1037,-1.0766 0.2205,-1.0506 0.1168,-1.362 0.0908,-0.895 0.1686,-0.7913 -0.0519,0.8432 0.2594,-0.6745 0.2854,-0.8172 0.1557,-0.7005 0.1816,-0.5448 0.1426,-0.6096 0.0649,-1.0507 0.1816,-0.7782 0.1297,-1.1804 0.2335,-0.9728 0.0648,-0.7264 0.3762,-1.1415 0.2724,-1.0636 0.1557,0.0908 v 0.4929 l -0.1427,1.2711 -0.1038,0.3892 -0.0519,0.8561 -0.0648,0.4929 -0.013,0.6485 -0.0908,0.9729 -0.1816,0.9598 -0.2465,0.8691 -0.0778,0.1297 -0.2205,0.7394 -0.1946,0.1686 -0.2724,0.8172 -0.2205,1.2323 -0.3242,1.2971 -0.2335,0.0519 -0.1946,1.0247 -0.1038,1.2582 -0.2334,2.0494 -0.3243,1.5436 0.2724,0.013 0.1945,-1.1026 0.2465,0.026 0.3762,-0.6486 0.428,-1.4528 0.2335,-0.7393 0.2335,-0.2076 0.2853,-0.8042 0.1038,-0.9598 0.2205,-0.908 0.013,1.323 -0.0778,1.1804 v 0.1297 c 0.412,-2.2384 0.7453,-4.5129 0.9728,-6.8098 l -0.0649,-0.3892 0.0649,-0.5577 0.0778,-0.0649 c 0.0206,-0.238 0.0463,-0.4749 0.0649,-0.7134 0.1193,-1.53 0.1859,-3.0658 0.2205,-4.6177 l -0.0389,-0.5189 0.0648,-0.0648 c 0.007,-0.4291 0.026,-0.8536 0.026,-1.2842 0,-2.9611 -0.1623,-5.8868 -0.467,-8.7685 l -0.0259,0.2594 -0.1816,0.0908 -0.2724,-1.3749 0.1556,-0.1038 -0.0519,-0.6096 0.1038,-0.3503 c -0.0466,-0.3539 -0.0786,-0.711 -0.1297,-1.0636 l -0.0519,0.0908 -0.1297,-0.6096 0.0778,-0.2076 c -4.3789,-28.4533 -23.2978,-52.1529 -48.9013,-63.2993 l -0.1167,-0.0519 c -0.0625,-0.0271 -0.132,-0.0379 -0.1946,-0.0648 h -0.0519 l -0.0389,0.0129 0.7134,0.3503 0.4021,0.2075 0.2854,0.1557 0.1167,0.0908 -1.1155,-0.4411 -0.428,-0.1686 -0.1816,-0.0648 0.0778,0.0778 h -0.1167 l -0.2595,-0.0519 -0.2594,-0.0649 0.0778,0.1038 0.013,0.0908 -0.1427,0.0259 h -0.2205 l -0.0648,0.0519 -0.0908,0.0519 0.5448,0.2854 0.4929,0.2464 -0.48,-0.1556 -0.5837,-0.2724 -0.5837,-0.2465 -0.5058,-0.1816 -0.2854,-0.0778 -0.0519,-0.0259 -0.0519,-0.1168 0.1168,-0.0389 0.3502,0.0649 0.1037,-0.0389 0.1557,-0.013 0.2335,0.0519 0.0778,-0.0389 -0.1427,-0.1168 0.3243,0.0778 h 0.1557 l 0.3113,0.0779 -0.0389,-0.0779 0.5188,0.1946 0.3113,0.1038 0.2594,0.0648 0.2724,0.0779 -0.0129,-0.0519 -0.3632,-0.1816 -0.3503,-0.1686 -0.0259,-0.0519 0.2075,0.0519 c -9.9351,-4.2288 -20.8372,-6.6154 -32.2982,-6.6153 -10.5106,0 -20.5238,2.0508 -29.7688,5.6554 -6.8232,2.6603 -13.2089,6.1819 -19.0287,10.4548 l -0.2983,0.2723 -0.6875,0.6097 -0.5189,0.5059 -0.6745,0.5577 -0.6874,0.5318 -0.6745,0.6097 -1.8419,1.6084 -1.0896,0.921 -0.9469,0.7653 -0.1038,0.2853 -1.0507,0.8821 -1.7251,1.6992 0.2205,-0.3632 -2.1013,2.1792 -0.1816,0.2853 1.2452,-1.323 -0.0519,0.1426 -1.4268,1.5306 -1.79,2.0235 -0.6745,0.7524 -0.3373,0.441 -0.0259,-0.0649 -0.1946,0.1168 0.5578,-0.6745 0.6745,-0.8302 0.4799,-0.5577 0.2854,-0.3762 0.0389,-0.1297 c -4.2524,4.8794 -7.8948,10.2831 -10.9218,16.0583 -0.4208,0.803 -0.8372,1.6073 -1.2322,2.4256 l 1.2322,-2.4256 0.8821,-1.5565 0.8691,-1.5436 0.6226,-1.0247 1.1155,-1.8419 1.2193,-1.803 1.3749,-1.9068 1.4528,-1.8808 0.0778,-0.026 0.9858,-1.2971 0.5059,-0.6615 0.0649,0.1686 -0.2335,0.6097 -0.921,1.4657 -0.415,0.5707 -0.4929,0.5059 -0.5319,0.8042 -0.9469,1.0248 -0.4021,0.6226 0.5578,-0.6616 0.1038,0.039 0.5447,-0.5189 0.039,0.1297 0.3372,-0.2335 -0.1556,0.6616 -0.3632,0.7523 -0.2595,0.6875 -0.5707,1.1544 -0.1297,0.5707 -0.2724,0.9729 -0.8172,2.2051 -0.1037,0.6874 -0.2206,0.6227 -0.5707,1.2971 -0.4021,0.7004 -0.4021,0.9729 -0.2205,1.2971 0.0908,1.0377 0.3762,0.3891 0.1037,0.5837 0.6226,0.5059 h 0.6097 l -0.1686,0.8042 0.2594,0.5707 -0.3892,1.3879 0.039,1.7641 -0.4411,1.8289 0.039,0.5319 -0.1816,0.9079 -0.3762,2.1273 -0.6486,2.6202 -0.0389,1.0247 0.1686,0.026 0.2724,1.2193 0.1557,1.5954 0.7134,1.9716 0.2594,0.921 0.013,2.3607 -0.2205,0.8691 -0.4151,1.816 -0.3113,0.454 -0.6486,0.0648 -0.5837,0.4151 -0.9987,1.6084 -1.0637,1.1804 -0.9469,-0.0519 -1.2063,0.7653 -0.6485,-0.454 0.0648,0.8042 -0.2983,0.8431 -0.8821,0.8691 -0.6226,0.5189 -0.3502,-0.934 -0.0259,1.4398 -0.7783,0.2205 -0.1168,0.4411 0.3243,1.1803 0.013,0.9988 -0.2205,0.2335 -0.1168,2.5164 -0.0389,0.7913 -0.1427,-0.0649 -0.0129,0.5837 -0.2854,1.2063 -0.2205,0.3502 -0.0908,0.1557 -0.2983,0.3762 -0.2465,-0.1038 -0.0519,-0.2465 -0.2853,0.2854 0.0908,-0.1816 0.0259,-0.3762 -0.1816,-1.323 -0.013,-0.8302 -0.1167,-0.3372 0.0519,-0.7523 0.0648,-0.908 0.1427,-0.0908 0.0389,-0.5318 -0.0389,-0.7135 0.1168,-0.1037 -0.0519,-0.454 0.1945,-0.5708 0.1687,-0.3113 -0.026,-0.5837 0.1297,-0.9339 0.0649,-0.895 0.1297,-0.2075 -0.0259,-1.3101 0.0778,-0.4021 -0.1816,-0.6356 -0.1427,0.6745 -0.0519,-0.6356 0.2335,-1.0766 0.3243,-0.908 0.1946,-0.9988 -0.0519,-1.3749 0.1686,-0.6356 -0.1816,-0.5837 -0.1427,-0.921 0.0389,-1.0506 -0.0389,-0.6616 0.1946,-2.8277 0.2464,-2.6072 0.2205,-1.8419 0.1298,-0.4021 0.1945,-1.1544 0.0649,-0.8561 0.1167,-1.5176 0.1557,-1.375 0.1686,-0.5707 0.0778,-0.3762 c -2.6291,8.0515 -4.1637,16.5965 -4.1637,25.5143 0,23.3582 9.7623,44.4426 25.3716,59.5117 0.004,0.004 0.009,0.009 0.013,0.013 l 0.4669,0.4021 -0.0389,-0.013 c 0.9324,0.8874 1.8809,1.7507 2.8537,2.5943 l 0.0389,0.0129 0.1945,0.1687 0.2854,0.2983 0.1038,0.1038 c 8.5204,7.2376 18.553,12.6947 29.5094,16.0194 l 0.1038,0.0129 -0.0519,-0.0389 -0.2594,-0.0908 -1.362,-0.4151 -0.2594,-0.1167 0.2983,0.0649 -0.3632,-0.1557 -0.6356,-0.2983 0.1038,0.1167 h -0.1168 l -0.7523,-0.2594 -0.908,-0.3373 -0.2853,-0.1686 0.2983,0.0778 0.2594,0.0779 0.6226,0.1686 -1.0506,-0.3891 -0.5967,-0.2206 -0.6875,-0.1945 -1.6603,-0.6486 -0.3761,-0.1945 -0.9988,-0.4281 -0.9858,-0.5578 -0.8042,-0.4021 -0.1168,-0.0389 -0.6226,-0.2983 -0.013,0.0519 -0.5318,-0.2205 -0.2594,-0.1946 0.4929,0.1297 -1.1544,-0.7653 -0.0649,-0.0519 -1.0507,-0.6615 -0.454,-0.3891 h 0.467 l -0.5707,-0.5837 0.4799,0.0389 1.2712,0.7004 1.0896,0.5707 0.8042,0.5319 1.3879,0.5188 0.908,0.4281 0.8301,0.428 0.9599,0.3762 0.6745,0.1427 0.6745,0.1556 0.2594,0.013 1.4528,0.4151 1.6084,0.5966 0.7394,0.2076 h 0.3632 l 1.323,0.1816 1.7382,0.415 1.79,0.4411 -0.4151,0.0259 -0.8172,0.0259 0.908,0.2465 0.5837,0.3243 -0.1946,-0.2724 -0.1297,-0.1816 0.7913,0.0908 0.6615,0.3762 0.1816,0.2853 -0.1557,0.1038 0.4281,0.1167 0.1816,-0.1816 0.441,0.1946 0.2983,0.2983 h 0.4151 l 0.5708,0.0649 0.428,0.1427 0.0649,0.1556 0.7004,0.0389 0.454,0.3113 0.7264,-0.0259 0.5707,0.0649 0.5059,0.3502 0.013,0.0908 -0.6486,-0.0778 0.0389,0.1297 0.7005,0.1037 0.415,0.013 0.3373,0.2075 1.0636,0.3373 0.7913,0.1816 0.9209,0.1816 -0.3891,0.013 0.7523,0.0389 0.3113,0.0648 1.362,0.1557 0.2594,0.0908 -0.3243,0.0389 -1.1285,-0.0778 -0.7782,-0.0779 0.7653,0.1298 0.2464,0.0648 -0.5837,-0.0648 -0.0259,0.0778 -0.5578,-0.026 0.1557,0.039 0.7523,0.0129 0.5448,0.013 0.6485,0.0778 0.0908,0.1297 -0.6226,0.026 -0.4021,-0.013 -0.5707,-0.0649 h -0.1946 l -1.0247,-0.1037 -0.467,-0.0649 0.3892,0.0649 h -0.1427 l 0.2594,0.0389 0.1686,0.0389 0.0779,0.013 -0.026,0.0129 c 3.1596,0.3676 6.368,0.5837 9.6246,0.5837 z m -36.6824,-9.43 0.428,0.2983 h -0.2594 l -0.2335,-0.1297 -0.4799,-0.3632 0.1686,0.013 z m 6.9136,-150.5304 0.5188,-0.1946 0.2854,-0.1037 0.1297,-0.0519 0.1168,-0.0389 0.4929,-0.1816 0.0389,-0.013 0.0389,-0.013 0.441,-0.1686 0.5189,-0.1816 h 0.0129 l 0.1427,-0.0519 0.0389,-0.013 0.3632,-0.1297 0.2205,-0.0648 0.3113,-0.1038 0.2335,-0.0778 0.3373,-0.1168 0.1816,-0.0519 0.415,-0.1426 0.4411,-0.1297 0.3113,-0.0908 0.2075,-0.0649 0.2075,-0.0389 0.2335,-0.0649 0.2854,-0.0778 -0.5837,0.1816 -0.5578,0.1686 -0.5448,0.1687 -0.1945,0.0648 0.2335,-0.0648 -0.3632,0.1297 -0.5578,0.1945 -0.5967,0.1816 -0.1945,0.0519 v -0.013 l -0.1298,0.039 -0.5188,0.1815 -0.0649,0.013 -0.3372,0.1168 -0.0649,0.0259 -0.1037,0.0389 -0.4411,0.1557 -0.6485,0.2464 -0.6615,0.2465 -0.2465,0.0778 0.3113,-0.1167 z m 59.7063,1.1155 0.4021,0.2465 0.2464,0.1556 -0.9339,-0.3891 -0.0389,-0.013 0.2075,-0.0259 z m -0.3243,0 -0.3113,0.013 -0.1686,0.0389 h -0.3502 l -0.2465,0.013 -0.428,-0.026 -0.4281,-0.0389 -0.5707,-0.1816 -0.3503,-0.2075 -0.5318,-0.1687 -0.5837,-0.1167 -0.6356,-0.1427 -0.5966,-0.0908 -0.6097,-0.0908 -0.5059,-0.0778 -0.4021,-0.013 0.1168,0.1816 -0.5837,-0.1427 -0.5837,-0.1686 -0.2205,-0.0389 0.2724,0.1297 0.7134,0.5578 h -0.3892 l -0.3113,0.0389 -0.2594,0.0648 -0.2983,0.0649 -0.1946,0.1167 -0.7264,-0.2205 -0.5059,-0.1167 -0.3502,0.0389 -0.1297,0.1557 -0.0778,0.1426 -0.441,0.0649 -0.0649,0.1557 -0.1686,0.1945 0.2853,0.2465 -0.1945,0.1686 -0.4021,0.0519 -0.4021,0.0389 -0.5189,-0.0519 -0.6096,-0.0908 -0.5578,-0.1167 -0.5967,-0.1557 -0.3242,-0.2075 -0.5578,-0.1297 -0.467,0.0129 -0.4799,-0.1556 -0.6615,-0.1946 -0.4021,0.0649 -0.5189,-0.1168 -0.5318,-0.1297 -0.5059,-0.1167 -0.6745,-0.1038 -0.5577,-0.0778 -0.6616,-0.1686 -0.5188,-0.0908 -0.3373,-0.2205 -0.5837,-0.1298 -0.2724,0.1298 -0.2334,0.1815 -0.5448,-0.0389 -0.3632,0.1297 -0.1038,0.1816 -0.4929,0.0779 -0.3891,-0.1687 -0.4021,-0.2853 -0.4411,-0.1427 -0.5318,-0.0519 -0.4929,-0.0908 -0.4799,-0.1297 -0.5318,-0.0649 -0.5059,-0.0648 h -0.5448 -0.5448 l -0.5707,-0.026 -0.5318,-0.0778 -0.3243,0.1297 -0.2335,0.1687 -0.5448,0.0259 -0.5577,0.0649 -0.5319,0.0129 -0.5837,-0.0259 -0.5058,-0.0519 -0.3373,-0.1946 -0.2594,0.1946 -0.6615,0.0259 -0.4281,-0.1426 -0.1167,-0.1816 -0.48,-0.1038 -0.3761,0.1816 -0.4929,0.2205 -0.441,-0.0649 -0.454,0.1298 -0.1557,-0.1816 -0.3243,-0.1038 -0.454,-0.0778 -0.3632,-0.1038 -0.441,-0.0649 -0.428,-0.0648 -0.3502,-0.0908 -0.2984,-0.1427 -0.4021,0.1816 -0.5188,0.0259 -0.467,-0.0518 -0.428,-0.0779 -0.5189,0.026 -0.3502,0.1686 -0.5189,0.0519 0.0649,-0.1816 0.2464,-0.1816 -0.4929,0.0259 -0.441,0.1557 -0.5059,0.0259 -0.0778,-0.1297 0.1816,-0.2075 0.026,-0.1816 -0.1038,-0.1297 -0.1816,-0.1038 -0.1816,-0.0908 0.0649,-0.1297 0.2464,-0.1686 0.5318,-0.0908 0.026,-0.013 0.0778,-0.013 0.5707,-0.1167 0.454,-0.013 h 0.454 l 0.454,0.013 0.4929,-0.013 0.428,0.0389 0.3892,0.0389 0.5448,-0.0648 h 0.4929 l 0.3632,0.0648 0.6096,-0.0518 0.2076,0.0259 0.2464,0.0259 0.5578,-0.0778 0.4929,-0.0908 0.5837,-0.0908 0.5318,-0.0389 h 0.5188 l 0.5059,-0.0908 0.6097,-0.0778 0.1037,0.1297 0.5189,-0.0649 0.1945,-0.1297 -0.0259,-0.1297 0.0908,-0.1297 0.5318,-0.0389 0.441,-0.1038 0.454,-0.0908 0.467,-0.0778 0.5059,-0.026 0.2205,0.1427 0.5188,-0.0519 0.5318,-0.0259 0.2984,0.1038 0.1686,0.0259 -0.1427,-0.3632 -0.2335,-0.1037 -0.3761,-0.0908 -0.1687,-0.1038 -0.5188,-0.026 -0.4799,-0.0389 -0.5319,-0.0129 -0.3242,-0.0779 -0.2724,-0.0648 0.0259,-0.1038 0.2724,-0.0778 0.454,-0.0908 0.454,-0.0649 0.2724,0.0779 0.5318,-0.039 0.5448,0.013 -0.3373,-0.0648 -0.1426,-0.0779 -0.3113,-0.0648 v -0.0779 l 0.1037,-0.0648 0.1168,-0.0778 0.0648,-0.0649 -0.4021,-0.0389 -0.0519,-0.0649 -0.4021,-0.0259 -0.5188,-0.013 0.1945,-0.0519 0.4151,-0.0389 0.3762,-0.0389 0.2075,0.0389 0.5059,0.026 0.3502,-0.026 0.48,0.026 0.3242,0.0389 0.4411,0.0259 0.2983,0.0519 0.1038,0.013 0.2075,0.0389 0.3762,-0.026 0.0129,-0.0129 v -0.0519 l 0.3762,0.0519 0.0259,0.0129 h 0.026 v -0.0129 -0.013 l -0.013,-0.013 v -0.0129 l 0.4021,0.0389 -0.1945,-0.0778 0.3631,0.0389 0.4929,0.0389 0.1687,-0.0389 0.3113,0.0389 0.0778,0.0129 0.5448,0.039 0.467,0.0778 0.5837,0.0519 0.4929,0.0648 0.4799,0.0519 0.4929,0.0649 0.4799,0.0778 0.48,0.0908 0.5448,0.0778 0.2724,0.0778 0.2853,0.0908 0.4151,0.1298 0.3762,0.1426 -0.3632,0.013 -0.1427,0.0649 -0.2724,0.0389 0.454,0.1297 0.5577,0.0389 0.4281,0.1038 0.3891,0.1167 0.48,0.1297 0.3502,0.1168 0.3761,0.1556 0.2595,0.1297 0.2594,0.1427 0.0519,0.1168 0.1167,0.1426 0.1946,0.1557 -0.2335,0.0778 0.0908,0.1427 -0.3113,0.0649 0.1556,0.1686 0.1427,0.1556 0.1687,0.1946 0.0648,0.1557 0.2335,0.1686 0.4929,0.1427 0.5578,0.0908 0.5837,0.1037 0.5447,0.0649 0.5189,0.0389 h 0.441 l 0.454,0.0259 0.4021,-0.0129 0.5578,0.0778 0.5966,0.1686 0.6227,0.1168 0.5577,0.1945 0.5189,0.0649 0.5318,0.0519 0.2983,0.0648 -0.454,-0.2205 -0.5837,-0.1297 -0.6356,-0.1816 -0.3372,-0.1816 h 0.4021 l -0.428,-0.1816 -0.5319,-0.1816 -0.5577,-0.1816 -0.0649,-0.1427 0.2465,-0.0389 0.5318,0.0779 0.5707,0.1686 0.48,0.1816 0.5058,0.1427 0.4929,0.1426 0.454,0.1687 0.6875,0.2464 0.2983,0.0389 0.3892,0.026 0.428,0.0519 0.4799,0.0908 0.5838,0.1945 0.4929,0.1946 0.6226,0.1946 0.5837,0.1427 0.4669,0.1037 0.5448,0.1816 0.3632,0.1038 0.3892,0.0908 0.1556,-0.0649 0.3632,0.0649 0.4021,0.0648 0.2075,-0.0389 z m -43.622,-3.5022 -0.4411,0.0389 -0.1816,-0.0778 -0.5188,0.0648 -0.6486,0.1427 0.1038,-0.1297 0.2465,-0.1297 0.1426,-0.1297 -0.5707,0.1167 0.0519,-0.1556 -0.2205,-0.0389 v -0.1038 l -0.3891,0.0259 -0.4929,0.0649 -0.2984,-0.013 -0.1427,-0.0519 -0.0908,-0.0648 -0.6096,0.1556 -0.2465,0.1297 -0.3113,0.1427 0.2076,0.026 -0.2854,0.1556 -0.3632,0.1427 -0.7523,0.3243 -0.0389,-0.0649 -0.2595,-0.0259 -0.3761,0.0259 -0.0908,-0.0648 0.1167,-0.1297 0.3373,-0.1427 -0.2076,-0.026 -0.428,0.0649 -0.5059,0.0778 -0.3632,0.0519 0.1168,-0.1038 -0.3243,0.0389 -1.1285,0.3243 0.454,-0.1945 0.0519,-0.0779 -0.2984,0.0389 0.4021,-0.1556 -0.1037,-0.026 0.0129,-0.0389 0.1687,-0.0908 -0.5837,0.1557 -0.5189,0.1427 0.441,-0.1687 -0.2464,0.0519 0.2205,-0.0908 0.4151,-0.1426 -0.2205,0.0389 -0.3243,0.0778 0.5448,-0.1686 0.441,-0.1297 0.1556,-0.0519 0.48,-0.1427 0.454,-0.1168 0.5058,-0.1426 0.2205,-0.0519 0.3114,-0.0778 0.3113,-0.0779 0.5966,-0.1297 0.1038,-0.013 v 0.013 l 0.1816,-0.0259 h 0.0908 l 0.5318,-0.1297 0.1686,-0.0649 0.3373,-0.0778 0.4799,-0.1168 0.48,-0.0908 -0.0649,0.026 0.441,-0.0778 0.5708,-0.1168 0.5577,-0.1038 0.4021,-0.0908 0.5189,-0.1037 0.2464,-0.0519 0.2335,-0.0389 h -0.0778 -0.0779 l 0.4281,-0.0649 0.0519,-0.013 0.1816,-0.0259 0.2594,-0.0389 0.0519,-0.013 h 0.0648 l 0.0519,-0.0129 0.441,-0.0779 0.2206,-0.0259 0.415,-0.0649 0.454,-0.0648 0.5189,-0.0649 0.6874,-0.0778 -0.2724,0.0519 -0.3761,0.0519 -0.2465,0.0518 -0.2853,0.0519 0.1427,0.013 0.3631,-0.0259 0.48,-0.0519 -0.5059,0.0908 -0.2594,0.0648 h 0.2335 l -0.0519,0.0519 -0.0389,0.0389 0.1037,0.0389 0.0908,0.0389 -0.0519,0.0649 -0.5058,0.0778 -0.467,0.0908 -0.428,0.1038 -0.2595,-0.013 -0.1297,-0.0389 h -0.2853 l -0.4929,0.1038 -0.8821,0.2075 -0.1946,0.0649 -0.0518,0.0778 0.0129,0.0649 -0.1167,0.0908 -0.1038,0.1037 -0.2594,0.1297 0.1038,0.0519 0.1426,0.0519 0.0779,0.026 0.3113,0.0129 0.2205,0.0519 0.1038,0.0649 0.0908,0.0778 0.0648,0.0908 0.1038,0.1167 -0.0519,0.1168 0.0259,0.1167 z m 26.1498,156.4453 0.1816,-0.026 0.5837,-0.2983 -0.415,-0.0519 0.3761,-0.4021 0.3502,-0.1167 0.6875,0.1167 -0.2335,0.3632 0.7394,0.2594 1.0766,0.454 0.3632,-0.0259 -0.0259,-0.3243 0.6485,-0.0519 0.0908,0.1816 0.8042,0.013 0.3243,0.2205 0.9728,-0.3113 -0.0648,0.3502 -0.8431,0.2724 0.5707,0.0908 h 0.2464 l -0.9469,0.0908 0.0649,-0.1557 0.0519,-0.0259 -0.8691,0.0519 -0.0648,-0.454 -0.7783,0.1556 -0.1167,0.3373 -0.5189,0.2205 -1.1674,-0.1427 -0.9599,0.026 -1.0247,-0.2335 -0.428,-0.2335 z m 6.4337,0.7134 0.467,-0.0519 0.8172,-0.1686 2.4515,-0.5967 -0.2594,0.2724 -0.882,0.2854 -0.2205,0.1037 -0.5319,0.0519 -0.3242,0.2465 -0.934,0.3761 0.0519,-0.1297 0.7264,-0.3632 -0.1946,-0.1427 -0.7004,0.1038 z m 2.698,1.349 -0.6615,-0.1427 0.1946,-0.1297 0.013,0.1556 0.4539,0.026 1.1026,-0.2594 z m -0.4669,-0.2724 v -0.013 l 0.0648,-0.0259 z m 0.0648,-0.0389 0.1687,-0.1038 v -0.0389 l 0.1816,-0.0778 0.5058,-0.0908 z m 0.1687,-0.1427 -0.7653,0.3502 -0.7394,0.2465 -0.1167,-0.013 0.8431,-0.3113 0.2075,-0.2983 0.6097,-0.1946 z m 0.0389,-0.2205 0.0129,-0.0908 -0.1815,0.013 0.5707,-0.2335 1.349,-0.6875 1.0117,-0.3243 0.5448,-0.3632 0.7134,-0.8042 0.5967,-0.0908 -0.2205,0.2076 0.1427,0.1556 -0.4151,0.2724 -0.2075,0.2724 -0.8042,0.3113 -0.5448,0.3502 -0.4411,0.0389 -0.6615,0.2854 -0.8172,0.4929 z m -0.1686,-0.0778 -0.2595,0.1037 -0.5188,0.1427 -0.5707,0.3762 -0.6356,0.2335 -1.0377,0.1167 -0.013,-0.0778 0.7004,-0.4021 0.2724,-0.4151 0.2984,-0.1427 -0.0389,0.0649 0.5058,0.0778 z m -14.7872,3.5541 -0.0908,-0.039 0.026,-0.0648 -0.2076,0.0648 h -0.3113 l -0.3243,-0.0389 0.5059,-0.0129 0.0519,-0.0779 0.3762,-0.0519 0.1686,0.039 -0.0649,0.0389 0.1427,0.0259 0.1946,0.026 -0.013,0.0389 z m -6.0056,-0.0649 -0.2465,-0.0778 -0.3372,0.0648 -0.7653,-0.0648 0.2075,-0.1168 h 0.3762 l 0.0259,-0.0778 0.7653,-0.0389 0.7783,0.0259 0.3243,0.1427 -0.5059,0.0778 z m -1.4787,-0.1427 -0.3762,-0.013 -0.1557,-0.0908 h -0.3761 l -0.0519,0.0908 -0.7913,-0.0908 -0.0259,-0.2205 0.3243,-0.2464 0.3891,-0.0778 -0.3502,-0.1168 0.5707,-0.1945 0.4021,0.0129 0.2595,0.2594 0.2983,0.0649 0.2464,0.2205 0.7394,0.1038 -0.8302,0.2075 z m 1.4657,-0.441 -0.6096,-0.0519 0.1686,-0.1038 -0.2205,-0.0778 0.5318,-0.0648 0.7004,0.1167 -0.454,0.0778 z m 13.3862,-0.467 -0.3372,-0.0389 -0.0649,-0.1297 -0.7134,-0.0648 -0.4021,-0.2206 -0.2724,-0.1945 0.441,-0.1686 -0.1686,-0.3503 0.4151,-0.0519 -0.1167,-0.3631 0.3761,-0.2335 -0.2464,-0.0908 0.415,-0.2465 0.908,-0.1297 0.4151,-0.2075 1.4268,-0.0649 0.1687,0.0389 -1.375,0.3892 -0.7004,0.3761 -0.1687,0.4021 -0.2724,0.4021 0.1427,0.3632 0.4151,0.1687 0.4281,0.1816 -0.1557,0.1037 z m 4.073,-0.4929 -0.2075,-0.0648 -0.2595,-0.0908 0.7134,-0.1557 0.2465,0.0389 -0.0649,0.1427 z m -7.186,-1.6214 -0.3503,-0.0129 -0.4799,-0.1297 0.1038,-0.0649 0.5707,-0.1038 0.6097,-0.0389 0.5058,-0.0259 -0.1037,0.1556 -0.7783,0.1946 z m -31.1827,-2.6201 -1.1934,-0.3113 -0.2983,0.1686 -1.1544,-0.3243 -0.026,0.4021 -0.7523,-0.0908 -0.908,-0.3762 0.6486,-0.1426 -0.2465,-0.1816 -0.9469,-0.1168 0.4799,-0.3113 -0.8431,-0.2724 0.9858,-0.2075 0.5059,-0.0908 0.5707,0.1167 1.9976,0.441 1.2452,0.467 v 0.4151 l 0.6226,0.3761 z m 0.5966,-5.2663 -0.9987,-0.6227 -0.8561,-0.8171 0.0519,-0.4021 -0.5059,-0.7913 0.6485,0.3892 0.0908,-0.2206 -0.5188,-0.3632 0.0259,-0.2334 0.8172,-0.1427 0.1816,-0.5318 -0.4021,-0.5059 -1.1025,0.0778 -0.5059,-0.5707 0.1427,-0.467 -0.9858,-0.2724 0.0129,-0.3632 1.1804,-0.1426 -0.8431,-0.2076 -1.7382,-0.9599 0.3243,-0.1815 0.7783,0.3502 0.7004,-0.1038 0.7913,0.4281 0.2853,-0.1816 1.5566,0.2594 1.1285,-0.013 0.9728,0.4799 -0.1167,0.467 0.5448,0.2594 0.3761,0.5708 -0.908,0.1686 -0.0518,0.3372 0.0389,0.9729 -0.454,0.1297 -0.0908,1.0636 -0.7264,0.0519 1.1285,0.7264 0.5967,0.6356 h -0.7653 l -0.7783,-0.1038 1.323,0.8302 -0.8561,-0.0649 z m 17.4463,-0.5059 -0.5189,-0.0519 -0.3502,-0.2464 0.6226,-0.3632 0.7653,-0.3113 0.4151,0.2075 0.1556,0.3632 -0.6874,0.2853 z m -5.6555,-1.4658 -1.2452,-0.2723 v -0.3373 l 0.7264,-0.467 0.6615,0.6616 z m -15.0206,-0.7653 -0.6226,-0.0389 -0.8172,-0.3891 -1.4787,-0.6615 -0.2464,-0.8821 -1.2453,-0.9209 0.9729,-0.1427 1.7122,0.5318 1.0895,0.7913 0.2724,0.6096 0.7913,0.5837 z m -27.0967,-3.0611 -0.5319,-0.3114 -0.7264,-0.5188 -1.8937,-1.4917 -0.7653,-0.5707 -0.2335,-0.2594 -0.454,-0.3373 -0.2984,-0.2854 0.2595,-0.0389 0.2464,0.0649 -0.0778,-0.2465 -0.6226,-0.454 0.0778,-0.0389 1.1415,0.8561 -0.0649,-0.1297 -0.895,-0.8042 -0.0519,-0.1816 0.1557,0.0389 0.9988,0.8561 0.5707,0.6097 0.5318,0.5058 -0.3372,-0.1556 0.8431,0.6875 0.1167,0.2983 -0.3502,-0.2335 0.1297,0.2594 0.441,0.3243 0.1038,0.1946 -0.4799,-0.3113 1.0766,0.8172 0.7912,0.5707 0.3373,0.2464 z m 25.4494,-0.7783 -0.9599,-0.2076 -0.5707,-0.1426 -0.8172,-0.0908 -0.467,-0.3243 -0.6745,-0.441 -1.0377,-0.3892 -0.6615,-0.5318 0.3243,-0.1297 1.5955,0.428 0.4539,0.3373 0.921,0.3372 0.2983,0.2595 0.9469,0.1686 0.5967,0.5059 z m 52.0014,-3.5411 0.8691,-0.2465 0.8431,0.0519 0.4799,-0.6226 0.3503,-0.9858 -0.8561,0.1556 -0.6745,-0.1686 0.3113,-0.7394 -0.934,0.0908 0.1816,-0.3372 0.6227,-0.2594 0.8431,-0.9469 1.2452,-0.3503 0.3373,-0.3761 -0.026,-0.441 0.1686,-0.2724 0.6097,-0.7005 -0.2594,0.7913 0.6226,0.2724 0.5577,-0.6097 0.9729,-0.6486 -0.6745,-0.3502 -1.0118,0.2595 0.1816,-0.921 0.6745,-0.0649 0.0649,-0.7653 0.908,-0.3761 0.3502,-1.1804 0.4929,-0.8172 0.013,-0.2724 -1.4528,-0.2983 -1.5176,0.1946 -0.921,0.5837 -1.0636,0.2334 -0.6097,0.8432 -0.2205,0.5577 0.2854,0.2594 0.0259,0.4022 -0.1427,0.8561 0.7783,0.0908 -0.4151,0.2983 -0.4799,0.0519 -0.8042,0.7653 -0.7264,0.5707 -1.5565,1.2582 -0.1816,0.7134 -1.2453,0.9858 0.4929,1.0507 0.8172,0.1686 0.1427,0.5967 0.7264,0.2075 z m -41.0797,-4.1379 -0.7653,-0.4021 -0.2983,-0.4021 0.0908,-0.7134 0.428,-0.2205 0.5189,0.8302 z m -0.6096,-1.9327 -0.5967,-0.3372 -0.5707,0.0648 0.1037,-0.6355 -0.2335,-1.3361 0.3503,-0.2983 0.5188,0.3762 0.4799,-0.0779 0.4411,1.4787 z m 6.4077,-3.3076 -0.8561,-0.1038 -1.1674,-0.1167 -1.3101,0.1038 -0.2334,-0.5837 1.5046,-0.5837 0.5707,-0.1298 0.8302,-0.428 0.2983,0.5837 -0.1297,0.3632 z m 73.5336,-0.4151 0.5707,-0.5967 c 0.4789,-0.6262 0.9526,-1.2537 1.4139,-1.8937 l -0.441,0.4669 -0.5319,0.6226 -0.4929,0.3243 -0.428,0.6097 0.1037,0.0259 z m -64.2073,-2.5034 -0.2075,-0.4929 1.4527,-0.2335 -0.0129,-0.1946 1.7121,0.1038 0.1298,0.3502 -0.6356,-0.1427 0.0129,0.1946 -0.882,0.0908 -0.908,-0.0649 z m 12.7377,-0.0389 -1.0118,-0.3503 -0.8431,0.013 -0.1297,-0.2724 -0.0778,-0.0129 -0.5578,-0.039 0.3373,-0.4799 0.5837,-0.1556 1.1414,0.4799 -0.0389,0.1038 -0.1167,0.2205 z m 54.2973,-1.0766 c 2.4638,-3.5441 4.6037,-7.3174 6.4986,-11.2331 l -0.9599,1.6993 -0.8431,1.3879 -0.1687,0.1037 -0.5966,1.0118 -0.5967,1.0247 -0.1038,0.3891 -0.3502,0.6616 -0.3113,0.3372 -0.5578,0.921 -0.454,0.9339 -0.6096,1.1155 -0.7264,1.1804 z m 9.4171,-17.991 c 0.644,-1.7049 1.2836,-3.4066 1.8159,-5.1626 l -0.6096,1.5825 -0.6097,1.4398 -0.2853,0.9469 z m -8.5221,-15.0077 -0.0519,-2.3089 0.3632,-2.0494 0.4799,-1.1415 0.6356,0.3243 0.2854,0.4151 -0.0519,1.4917 -0.5318,1.4787 -0.4929,0.9988 z m 10.0008,-6.2002 0.1037,-0.7264 0.5578,-1.5825 0.3502,-0.8042 0.2595,-1.2323 0.1556,-0.4021 0.2075,-0.5058 0.1687,-1.1156 0.1167,-1.2452 0.2854,-1.1933 0.1945,-2.0235 0.0908,-1.0766 0.1557,-1.1674 0.0519,-0.8691 0.0648,-0.3762 -0.0518,-0.2853 -0.0779,-0.9469 0.0908,-0.4151 0.1427,0.4929 -0.013,0.6745 0.0649,-0.3113 0.0778,-1.2063 0.2205,0.0389 0.0389,0.3761 0.0519,-0.1297 0.1038,0.4281 0.0649,1.3101 0.1297,1.3879 0.0648,0.0129 0.1038,0.9859 -0.026,0.9469 0.013,1.1414 -0.0648,2.1662 -0.039,0.5967 -0.1815,1.0636 -0.1427,-0.428 -0.2984,-0.1946 -0.0519,0.013 -0.1037,0.7393 -0.2594,0.9858 -0.3114,0.026 -0.3761,1.5435 -0.2205,0.5967 -0.3373,0.9729 -0.441,1.4008 -0.6486,0.2854 z m 1.4268,-4.7475 v -0.7782 l -0.2205,-0.1297 -0.0259,-0.5837 0.0389,-1.2582 0.1945,0.1297 0.0519,-0.8691 -0.1556,-0.7653 0.1037,-0.1686 0.1557,0.908 0.1038,1.8419 -0.1038,1.1544 z m 1.6733,-2.5034 0.3632,-0.0778 0.1686,-0.2076 0.0259,-1.0895 -0.1945,-1.2712 -0.0908,0.6485 -0.2205,0.2465 -0.026,0.1038 0.1038,1.1803 z m -2.27,-4.6566 -0.4799,-0.4151 -0.2335,-1.1026 0.4021,0.5967 0.3502,0.1167 0.2206,-0.0908 0.2724,0.0519 -0.0519,0.7783 z m 0.8691,-0.467 -0.1038,-0.4799 0.0908,-0.48 0.2595,0.2724 0.0908,0.6097 z m -3.5282,-3.3206 -0.1686,-0.4281 -0.0648,-0.6745 0.1686,-0.9858 0.1686,1.0766 -0.0389,0.5189 z m 4.073,-3.7876 -0.0778,-0.8042 0.2724,-0.4021 0.2724,0.1816 0.0908,0.5188 -0.1038,0.2984 -0.1946,-0.4281 -0.1297,0.1038 z m -1.2452,-0.2594 -0.1557,-0.1816 0.0778,-0.3892 0.2465,-0.6226 0.1946,-0.4021 0.0129,-1.0636 0.1816,-0.3113 0.0649,0.1686 0.0519,0.4929 0.0389,0.8561 -0.1946,0.5707 0.013,0.3373 -0.2205,0.3113 -0.2205,0.0519 z m 1.5954,-1.5566 -0.1686,-0.428 -0.1297,-0.4281 -0.0649,-0.3891 0.0778,-0.0259 0.3892,0.9987 z m -45.4899,-3.7876 -0.4799,-0.6226 -0.1038,-0.8431 -0.8042,-0.9728 -0.5318,0.1686 0.1167,-0.6097 -0.454,-0.7004 -1.1414,-0.8561 -0.8302,-0.7912 -0.5577,-0.013 -0.5059,-0.2594 -0.7523,-0.2724 -0.6486,-0.0519 -0.2724,-0.882 -0.5318,-0.7653 -0.0389,-1.2712 0.1297,-0.8561 0.2205,-0.6486 -0.2335,-0.8561 -0.7393,-1.0247 -0.0649,-0.454 -0.6096,-0.2335 -0.3632,-0.9598 -0.026,-0.9599 0.2854,-1.0636 -0.1038,-1.1674 0.2205,-0.6875 0.895,-0.467 0.6356,-0.3372 1.1545,0.5577 1.0377,0.3113 0.8301,1.5177 0.7912,1.8419 1.1804,2.5423 0.895,1.8679 0.7264,1.5954 0.2465,1.1674 0.3761,0.3243 0.1946,0.5837 -0.1038,1.0247 0.2854,0.4021 0.3243,-0.8042 0.2724,0.4021 0.2075,0.6616 -0.2464,0.6615 -0.013,1.6733 -0.2075,0.9339 -0.2724,0.5967 z m -89.0211,-46.3459 0.5448,-0.4281 1.0247,-0.8431 c -0.5271,0.4196 -1.0502,0.8428 -1.5695,1.2712 z m 16.201,-10.3121 0.0648,-0.0778 0.3632,-0.1946 0.2594,-0.1686 0.0908,-0.0779 0.2076,-0.1167 0.3762,-0.1946 0.0259,-0.0389 0.3113,-0.1556 0.3502,-0.1687 0.5578,-0.2594 0.3632,-0.1816 0.4151,-0.1816 0.4799,-0.2205 0.4021,-0.1686 0.3891,-0.1557 -0.4151,0.1816 -0.415,0.1946 -0.0779,0.0389 -0.2723,0.1427 -0.467,0.1946 -0.4929,0.2205 -0.5059,0.2334 -0.3632,0.1816 -0.2983,0.1687 -0.2594,0.1427 -0.0649,0.0648 0.2724,-0.1038 -0.2465,0.1427 -0.2724,0.1816 -0.3891,0.2205 z m 15.4876,-4.6826 -0.1687,-0.0649 -0.2594,-0.0389 -0.1038,-0.0648 -0.3891,0.0518 0.5578,-0.2464 0.0778,0.0389 0.3243,-0.0259 0.2334,0.0259 0.3892,-0.0259 0.0259,0.0778 -0.3243,0.1946 z"
           style="fill:#000000;fill-opacity:1;fill-rule:nonzero;stroke:none"
           id="path30"
           inkscape:connector-curvature="0" /></g></g></g></svg>